<svg width="2093" height="484" viewBox="0 0 2093 484" fill="none" xmlns="http://www.w3.org/2000/svg">
<path d="M551.284 387V96.0909H743.898V146.801H612.79V216.119H731.114V266.83H612.79V387H551.284ZM866.696 391.261C844.632 391.261 825.55 386.574 809.452 377.199C793.448 367.729 781.09 354.566 772.378 337.71C763.666 320.759 759.31 301.11 759.31 278.761C759.31 256.223 763.666 236.527 772.378 219.67C781.09 202.72 793.448 189.557 809.452 180.182C825.55 170.712 844.632 165.977 866.696 165.977C888.76 165.977 907.795 170.712 923.798 180.182C939.897 189.557 952.302 202.72 961.014 219.67C969.726 236.527 974.082 256.223 974.082 278.761C974.082 301.11 969.726 320.759 961.014 337.71C952.302 354.566 939.897 367.729 923.798 377.199C907.795 386.574 888.76 391.261 866.696 391.261ZM866.98 344.386C877.018 344.386 885.399 341.545 892.122 335.864C898.846 330.087 903.912 322.227 907.321 312.284C910.825 302.341 912.577 291.025 912.577 278.335C912.577 265.646 910.825 254.33 907.321 244.386C903.912 234.443 898.846 226.583 892.122 220.807C885.399 215.03 877.018 212.142 866.98 212.142C856.848 212.142 848.325 215.03 841.412 220.807C834.594 226.583 829.433 234.443 825.929 244.386C822.52 254.33 820.815 265.646 820.815 278.335C820.815 291.025 822.52 302.341 825.929 312.284C829.433 322.227 834.594 330.087 841.412 335.864C848.325 341.545 856.848 344.386 866.98 344.386ZM1013.43 387V168.818H1072.09V206.886H1074.37C1078.34 193.345 1085.02 183.117 1094.39 176.205C1103.77 169.197 1114.57 165.693 1126.78 165.693C1129.81 165.693 1133.08 165.883 1136.58 166.261C1140.09 166.64 1143.16 167.161 1145.82 167.824V221.517C1142.97 220.665 1139.04 219.907 1134.03 219.244C1129.01 218.581 1124.41 218.25 1120.25 218.25C1111.35 218.25 1103.39 220.191 1096.38 224.074C1089.47 227.862 1083.98 233.165 1079.91 239.983C1075.93 246.801 1073.94 254.661 1073.94 263.562V387H1013.43ZM1178.24 387V96.0909H1239.74V336.29H1364.46V387H1178.24ZM1503.49 391.261C1481.04 391.261 1461.72 386.716 1445.53 377.625C1429.43 368.439 1417.03 355.466 1408.32 338.705C1399.6 321.848 1395.25 301.915 1395.25 278.903C1395.25 256.46 1399.6 236.763 1408.32 219.812C1417.03 202.862 1429.29 189.652 1445.11 180.182C1461.01 170.712 1479.67 165.977 1501.07 165.977C1515.46 165.977 1528.86 168.297 1541.27 172.938C1553.77 177.483 1564.66 184.348 1573.94 193.534C1583.32 202.72 1590.61 214.273 1595.82 228.193C1601.02 242.019 1603.63 258.212 1603.63 276.773V293.392H1419.39V255.892H1546.67C1546.67 247.18 1544.77 239.462 1540.99 232.739C1537.2 226.015 1531.94 220.759 1525.22 216.972C1518.59 213.089 1510.87 211.148 1502.07 211.148C1492.88 211.148 1484.74 213.278 1477.63 217.54C1470.63 221.706 1465.13 227.341 1461.16 234.443C1457.18 241.451 1455.14 249.263 1455.05 257.881V293.534C1455.05 304.33 1457.04 313.657 1461.01 321.517C1465.09 329.377 1470.82 335.438 1478.2 339.699C1485.59 343.96 1494.35 346.091 1504.48 346.091C1511.2 346.091 1517.36 345.144 1522.95 343.25C1528.53 341.356 1533.32 338.515 1537.29 334.727C1541.27 330.939 1544.3 326.299 1546.38 320.807L1602.35 324.5C1599.51 337.947 1593.68 349.689 1584.88 359.727C1576.17 369.67 1564.9 377.436 1551.07 383.023C1537.34 388.515 1521.48 391.261 1503.49 391.261ZM1703.63 260.864V387H1643.12V168.818H1700.79V207.312H1703.34C1708.17 194.623 1716.27 184.585 1727.63 177.199C1739 169.718 1752.78 165.977 1768.97 165.977C1784.12 165.977 1797.33 169.292 1808.6 175.92C1819.87 182.549 1828.63 192.019 1834.88 204.33C1841.13 216.545 1844.25 231.129 1844.25 248.08V387H1783.74V258.875C1783.84 245.523 1780.43 235.106 1773.51 227.625C1766.6 220.049 1757.08 216.261 1744.96 216.261C1736.82 216.261 1729.62 218.013 1723.37 221.517C1717.22 225.021 1712.39 230.134 1708.88 236.858C1705.47 243.487 1703.72 251.489 1703.63 260.864ZM2073.48 231.034L2018.08 234.443C2017.13 229.708 2015.1 225.447 2011.97 221.659C2008.85 217.777 2004.73 214.699 1999.62 212.426C1994.6 210.059 1988.58 208.875 1981.58 208.875C1972.2 208.875 1964.29 210.864 1957.85 214.841C1951.41 218.723 1948.19 223.932 1948.19 230.466C1948.19 235.674 1950.28 240.078 1954.44 243.676C1958.61 247.275 1965.76 250.163 1975.89 252.341L2015.38 260.295C2036.59 264.652 2052.41 271.659 2062.83 281.318C2073.24 290.977 2078.45 303.667 2078.45 319.386C2078.45 333.686 2074.24 346.233 2065.81 357.028C2057.47 367.824 2046.02 376.252 2031.43 382.312C2016.94 388.278 2000.23 391.261 1981.29 391.261C1952.41 391.261 1929.4 385.248 1912.26 373.222C1895.21 361.1 1885.22 344.623 1882.29 323.79L1941.8 320.665C1943.6 329.472 1947.96 336.195 1954.87 340.835C1961.78 345.381 1970.64 347.653 1981.43 347.653C1992.04 347.653 2000.56 345.617 2007 341.545C2013.54 337.379 2016.85 332.028 2016.94 325.494C2016.85 320.002 2014.53 315.504 2009.98 312C2005.44 308.402 1998.43 305.655 1988.96 303.761L1951.18 296.233C1929.87 291.972 1914.01 284.585 1903.59 274.074C1893.27 263.562 1888.11 250.163 1888.11 233.875C1888.11 219.86 1891.9 207.786 1899.47 197.653C1907.14 187.521 1917.89 179.708 1931.72 174.216C1945.64 168.723 1961.93 165.977 1980.58 165.977C2008.14 165.977 2029.82 171.801 2045.64 183.449C2061.55 195.097 2070.83 210.958 2073.48 231.034Z" fill="#367FFF"/>
<path d="M396 221.5C396 306.375 325.718 376 238 376C150.282 376 80 306.375 80 221.5C80 136.625 150.282 67 238 67C325.718 67 396 136.625 396 221.5Z" stroke="#367FFF" stroke-width="50"/>
<line x1="111.678" y1="332.678" x2="34.6777" y2="409.678" stroke="#367FFF" stroke-width="50"/>
<line x1="14.3394" y1="69.5212" x2="103.541" y2="131.98" stroke="#367FFF" stroke-width="50"/>
<line x1="488.322" y1="458.678" x2="362.322" y2="332.678" stroke="#367FFF" stroke-width="50"/>
<line x1="365.661" y1="131.727" x2="511.626" y2="29.5212" stroke="#367FFF" stroke-width="50"/>
</svg>
