<svg width="600" height="600" viewBox="0 0 600 600" fill="none" xmlns="http://www.w3.org/2000/svg">
<path d="M0 79.9999C0 35.8171 35.8172 -0.00012207 80 -0.00012207H520C564.183 -0.00012207 600 35.8171 600 79.9999V520C600 564.183 564.183 600 520 600H80C35.8172 600 0 564.183 0 520V79.9999Z" fill="#367FFF"/>
<path d="M433 279.5C433 364.375 362.718 434 275 434C187.282 434 117 364.375 117 279.5C117 194.625 187.282 125 275 125C362.718 125 433 194.625 433 279.5Z" stroke="white" stroke-width="50"/>
<line x1="148.678" y1="390.678" x2="71.6777" y2="467.678" stroke="white" stroke-width="50"/>
<line x1="51.3394" y1="127.521" x2="140.541" y2="189.98" stroke="white" stroke-width="50"/>
<line x1="525.322" y1="516.678" x2="399.322" y2="390.678" stroke="white" stroke-width="50"/>
<line x1="402.661" y1="189.727" x2="548.626" y2="87.5211" stroke="white" stroke-width="50"/>
</svg>
